<?xml version="1.0" encoding="UTF-8"?>
<!DOCTYPE svg PUBLIC "-//W3C//DTD SVG 1.1//EN" "http://www.w3.org/Graphics/SVG/1.1/DTD/svg11.dtd">

<svg xmlns="http://www.w3.org/2000/svg" xml:space="preserve" width="228px" height="100px" version="1.1" style="shape-rendering:geometricPrecision; text-rendering:geometricPrecision; image-rendering:optimizeQuality; fill-rule:evenodd; clip-rule:evenodd"
viewBox="0 0 95.19 41.67"
 xmlns:xlink="http://www.w3.org/1999/xlink">
 
<symbol id="artmajeur" viewBox="48.95 -45.15 130.11 130.18">
 <path class="fil0" d="M110.92 -45.12c-11.02,0.72 -20.42,3.52 -29.64,8.76 -6.78,3.89 -13.37,9.67 -18.43,16.09 -5.15,6.5 -9.13,14.27 -11.39,22.32 -4.43,15.54 -2.98,32.17 4.16,46.72 5.24,10.57 13.46,19.79 23.49,26.11 8.68,5.6 18.53,8.95 29.37,9.94 2.08,0.27 8.95,0.27 11.03,0 15.9,-1.53 29.82,-8.04 40.75,-19.07 9.04,-9.21 14.91,-20.33 17.53,-32.89 2.8,-14.19 0.91,-28.74 -5.42,-41.75 -8.22,-16.63 -23.49,-29.19 -41.3,-33.98 -3.7,-0.99 -7.59,-1.71 -11.38,-2.07 -1.45,-0.09 -7.5,-0.28 -8.77,-0.18zm9.94 3.07c7.5,0.9 13.92,2.8 20.7,6.05 9.85,4.79 18.97,12.92 24.94,22.32 1.44,2.35 2.08,3.44 3.34,5.97 3.25,6.41 5.33,13.64 6.15,21.14 0.36,2.8 0.36,10.21 0,13.02 -1.27,11.29 -5.34,21.77 -11.84,30.54 -6.06,8.13 -13.92,14.73 -22.59,18.89 -6.78,3.34 -13.2,5.24 -20.7,6.05 -2.35,0.27 -8.85,0.45 -11.47,0.27 -15.1,-1.17 -28.83,-7.5 -39.58,-18.25 -10.4,-10.48 -16.63,-23.95 -17.9,-38.68 -0.36,-4.34 -0.18,-10.12 0.45,-14.46 1.45,-10.03 5.52,-19.88 11.48,-27.92 5.24,-7.05 11.75,-12.83 19.25,-17.08 7.41,-4.34 16.27,-7.14 24.67,-7.95 0.81,0 1.72,-0.09 1.99,-0.18 1.35,-0.09 9.49,0.09 11.11,0.27l0 0z"/>
 <path class="fil0" d="M110.56 -36.45c-0.36,0 -1.63,0.18 -2.71,0.27 -10.66,1 -20.88,5.15 -29.37,11.84 -10.48,8.22 -17.71,19.88 -20.33,32.62 -0.36,1.81 -0.81,4.88 -0.91,5.88 0,0.63 -0.09,0.63 1.81,-0.09 0.73,-0.28 2.35,-0.73 3.53,-1.09 2.17,-0.63 7.14,-1.81 7.68,-1.81 0.36,0 0.36,-0.09 1.17,-1.98 3.26,-8.05 8.05,-17.08 12.11,-23.14 4.34,-6.32 9.58,-11.93 14.46,-15.63 4.52,-3.44 9.4,-5.88 13.19,-6.69 0.82,-0.18 1,-0.27 0.46,-0.18 -0.28,0 -0.73,0 -1.09,0z"/>
 <path class="fil0" d="M135.14 -32.11c1.08,0.9 3.07,3.07 3.98,4.25 0.45,0.63 1.26,2.07 1.8,3.07 1.9,3.97 2.81,7.59 3.08,12.65 0.36,7.14 -1.09,15.09 -4.7,25.75 -1.27,3.71 -2.26,6.51 -7.86,20.88 -1.09,2.89 -1.81,5.15 -2.17,6.87 -0.27,1.17 -0.36,1.62 -0.36,4.24 0.09,4.25 0.36,5.61 1.53,6.33 0.45,0.36 0.63,0.36 1.45,0.36 0.99,0 1.08,0 2.17,-0.54 2.98,-1.45 6.68,-4.61 13.91,-11.75 4.07,-4.07 4.79,-4.7 5.52,-4.7 0.9,0 1.71,1.09 1.98,2.62 0.27,1.36 0.36,3.8 0.18,4.97 -0.63,4.25 -4.24,10.21 -8.94,14.73 -7.23,6.87 -16.36,10.94 -24.04,10.67 -4.07,-0.19 -7.14,-1.09 -9.22,-2.81 -2.08,-1.8 -3.52,-5.06 -4.06,-9.3 -0.28,-1.99 -0.28,-6.42 0.09,-8.5 0.81,-5.33 2.89,-13.19 5.42,-20.96 0.36,-1 0.63,-1.9 0.54,-1.9 0,0 -10.66,-0.45 -15.99,-0.63 -1.99,-0.09 -5.97,-0.18 -8.77,-0.27l-5.15 -0.1 -0.09 0.37c-0.36,1.98 -1.27,9.12 -1.63,12.74 -0.54,5.87 -0.72,8.85 -0.99,17.71 -0.09,3.16 -0.09,3.98 -0.36,4.88 -0.46,1.81 -1.27,3.43 -2.44,4.61l-0.36 0.45 1.35 0.9c7.95,5.52 16.81,8.86 26.66,10.03 2.44,0.28 6.96,0.37 9.58,0.18 3.97,-0.27 6.68,-0.72 10.48,-1.71 15.9,-3.89 29.37,-14.73 36.69,-29.37 1.44,-2.89 2.08,-4.43 3.07,-7.5 4.16,-12.56 3.71,-26.75 -1.35,-38.77 -5.43,-13.01 -15.55,-23.58 -28.29,-29.46 -1.08,-0.54 -2.35,-1.08 -2.71,-1.17l-0.63 -0.27 0.63 0.45 0 0z"/>
 <path class="fil0" d="M112.55 -17.92c-3.25,0.36 -6.51,1.53 -9.22,3.52 -4.25,2.98 -8.49,8.77 -11.47,15.45 -1.18,2.62 -3.35,8.77 -3.17,8.95 0.09,0.09 26.84,0.54 30.18,0.54l1.45 0 0.36 -1.17c1.18,-3.62 2.44,-8.68 2.89,-11.48 0.36,-2.35 0.36,-5.96 0,-7.86 -0.54,-3.25 -1.71,-5.42 -3.7,-6.69 -1.81,-1.26 -4.07,-1.63 -7.32,-1.26l0 0z"/>
 <path class="fil0" d="M64.65 25.36c-3.61,0.45 -7.13,0.9 -7.13,1 -0.19,0.18 0.72,5.42 1.44,7.86 0.54,2.17 2.44,7.59 2.62,7.5 0,-0.09 0.18,-1 0.36,-2.08 0.73,-3.25 3.17,-12.83 3.71,-14.1 0.09,-0.27 0,-0.27 -1,-0.18l0 0z"/>
</symbol>
<symbol id="instagram" viewBox="48.94 -45.13 130.13 130.13">
 <path class="fil1" d="M87.16 84.64c-5.33,-0.09 -10.66,-1.17 -15.72,-3.07 -4.34,-1.63 -8.32,-4.16 -11.57,-7.5 -3.34,-3.25 -5.87,-7.14 -7.5,-11.48 -1.9,-5.06 -2.89,-10.39 -2.98,-15.81 -0.36,-6.96 -0.45,-9.13 -0.45,-26.84 0,-17.71 0.09,-19.88 0.45,-26.84 0.09,-5.42 1.08,-10.75 2.98,-15.82 1.63,-4.33 4.25,-8.22 7.5,-11.47 3.25,-3.35 7.23,-5.88 11.57,-7.5 5.06,-1.9 10.39,-2.98 15.72,-3.07 6.96,-0.28 9.22,-0.37 26.84,-0.37 17.71,0 19.97,0.09 26.84,0.37 5.42,0.09 10.75,1.17 15.81,3.07 4.34,1.62 8.32,4.15 11.57,7.5 3.25,3.25 5.87,7.14 7.5,11.47 1.81,5.07 2.89,10.4 2.98,15.82 0.27,6.96 0.36,9.13 0.36,26.84 0,17.71 -0.09,19.88 -0.36,26.84 -0.09,5.42 -1.17,10.75 -2.98,15.81 -1.63,4.34 -4.25,8.23 -7.5,11.48 -3.25,3.34 -7.23,5.87 -11.57,7.5 -5.06,1.9 -10.39,2.89 -15.81,3.07 -6.87,0.27 -9.13,0.36 -26.84,0.36 -17.62,0 -19.88,-0.09 -26.84,-0.36zm0.54 -117.66c-4.06,0 -8.13,0.82 -12.11,2.26 -2.8,1 -5.33,2.71 -7.5,4.88 -2.07,2.08 -3.79,4.61 -4.79,7.41 -1.44,3.89 -2.25,8.05 -2.25,12.11 -0.37,6.96 -0.46,8.95 -0.46,26.3 0,17.44 0.09,19.43 0.46,26.39 0,4.06 0.81,8.13 2.25,12.1 1,2.81 2.72,5.34 4.79,7.41 2.17,2.17 4.7,3.89 7.5,4.88 3.89,1.45 8.05,2.26 12.11,2.26 6.87,0.27 8.95,0.36 26.3,0.36 17.44,0 19.43,0 26.3,-0.36 4.15,0 8.22,-0.81 12.11,-2.26 2.89,-0.99 5.42,-2.71 7.5,-4.88 2.16,-2.07 3.88,-4.6 4.88,-7.41 1.44,-3.88 2.16,-8.04 2.26,-12.1 0.27,-6.96 0.36,-8.95 0.36,-26.39 0,-17.35 0,-19.34 -0.36,-26.3 -0.1,-4.07 -0.82,-8.13 -2.26,-12.11 -1,-2.8 -2.72,-5.33 -4.88,-7.41 -2.08,-2.17 -4.61,-3.88 -7.5,-4.88 -3.8,-1.44 -7.96,-2.26 -12.11,-2.26 -6.78,-0.27 -8.86,-0.36 -26.3,-0.36 -17.35,0 -19.43,0 -26.3,0.36l0 0zm-5.96 52.96c0,-17.8 14.46,-32.26 32.26,-32.35 17.89,0 32.26,14.55 32.26,32.35 0,0 0,0 0,0 0,17.8 -14.46,32.26 -32.26,32.26 0,0 0,0 0,0 -17.8,0.09 -32.26,-14.46 -32.26,-32.26 0,0 0,0 0,0l0 0zm11.3 0c0,11.57 9.39,20.96 20.96,20.96 11.57,0 20.96,-9.4 20.96,-20.96 0,0 0,0 0,0 0,-11.57 -9.39,-20.97 -20.96,-20.97 0,0 0,0 0,0 -11.57,0 -20.96,9.4 -20.96,20.97l0 0zm47.44 -34.52c0,-4.52 3.7,-8.13 8.13,-8.13 4.52,0 8.13,3.7 8.13,8.13 0,0 0,0 0,0 0,4.43 -3.61,8.04 -8.04,8.04 0,0 0,0 0,0 -4.52,0 -8.22,-3.61 -8.22,-8.04 0,-0.09 0,-0.09 0,0l0 0 0 0z"/>
</symbol>
 <g id="Layer_x0020_1">
  <metadata id="CorelCorpID_0Corel-Layer"/>
  <use transform="scale(0.32031 0.32014)" width="130.11" height="130.18" xlink:href="#artmajeur"/>
  <use transform="scale(0.320255 0.320257)" x="167.1" width="130.13" height="130.13" xlink:href="#instagram"/>
 </g>
</svg>
